<svg width="1888" height="1207" viewBox="0 0 1888 1207" fill="none" xmlns="http://www.w3.org/2000/svg">
<path d="M1499.76 881.744C1288.17 945.552 499.893 1273.08 436.086 1061.5C372.279 849.917 1057.11 179.341 1268.69 115.533C1480.27 51.7261 1703.52 171.522 1767.33 383.106C1831.14 594.689 1711.34 817.937 1499.76 881.744Z" fill="url(#paint0_linear_461_461)"/>
<path d="M1499.76 881.744C1288.17 945.552 499.893 1273.08 436.086 1061.5C372.279 849.917 1057.11 179.341 1268.69 115.533C1480.27 51.7261 1703.52 171.522 1767.33 383.106C1831.14 594.689 1711.34 817.937 1499.76 881.744Z" fill="url(#paint1_linear_461_461)"/>
<path d="M464.6 146.356C464.656 145.881 465.344 145.881 465.4 146.356L465.872 150.333C466.482 155.469 470.531 159.518 475.667 160.128L479.644 160.6C480.119 160.656 480.119 161.344 479.644 161.4L475.667 161.872C470.531 162.482 466.482 166.531 465.872 171.667L465.4 175.644C465.344 176.119 464.656 176.119 464.6 175.644L464.128 171.667C463.518 166.531 459.469 162.482 454.333 161.872L450.356 161.4C449.881 161.344 449.881 160.656 450.356 160.6L454.333 160.128C459.469 159.518 463.518 155.469 464.128 150.333L464.6 146.356Z" fill="#FFFDF2"/>
<path d="M98.8948 344.975C99.5007 341.23 96.9557 337.702 93.2103 337.096C89.4649 336.49 85.9375 339.035 85.3315 342.781C84.7256 346.526 87.2706 350.054 91.016 350.66C94.7614 351.266 98.2888 348.721 98.8948 344.975Z" stroke="#F0ECEA" stroke-width="1.93" stroke-miterlimit="10"/>
<path d="M250.155 264.033C251.524 255.597 245.795 247.648 237.359 246.279C228.923 244.909 220.974 250.638 219.605 259.074C218.235 267.511 223.964 275.46 232.4 276.829C240.836 278.199 248.785 272.47 250.155 264.033Z" stroke="#F0ECEA" stroke-width="2.87" stroke-miterlimit="10"/>
<path d="M47.3591 360.66C50.2045 360.66 52.5112 358.353 52.5112 355.508C52.5112 352.662 50.2045 350.355 47.3591 350.355C44.5137 350.355 42.207 352.662 42.207 355.508C42.207 358.353 44.5137 360.66 47.3591 360.66Z" fill="#F0ECEA"/>
<path d="M6.18249 386.419C6.18249 388.129 4.80114 389.511 3.09125 389.511C1.38135 389.511 0 388.129 0 386.419C0 384.709 1.38135 383.328 3.09125 383.328C4.80114 383.328 6.18249 384.709 6.18249 386.419Z" fill="#F0ECEA"/>
<path d="M199.208 266.469C201.105 266.469 202.643 264.931 202.643 263.034C202.643 261.137 201.105 259.6 199.208 259.6C197.311 259.6 195.773 261.137 195.773 263.034C195.773 264.931 197.311 266.469 199.208 266.469Z" fill="#F0ECEA"/>
<path d="M98.8948 344.975C99.5007 341.23 96.9557 337.702 93.2103 337.096C89.4649 336.49 85.9375 339.035 85.3315 342.781C84.7256 346.526 87.2706 350.054 91.016 350.66C94.7614 351.266 98.2888 348.721 98.8948 344.975Z" stroke="#F0ECEA" stroke-width="1.93" stroke-miterlimit="10"/>
<path d="M250.155 264.033C251.524 255.597 245.795 247.648 237.359 246.279C228.923 244.909 220.974 250.638 219.605 259.074C218.235 267.511 223.964 275.46 232.4 276.829C240.836 278.199 248.785 272.47 250.155 264.033Z" stroke="#F0ECEA" stroke-width="2.87" stroke-miterlimit="10"/>
<path d="M47.3591 360.658C50.2045 360.658 52.5112 358.351 52.5112 355.506C52.5112 352.66 50.2045 350.354 47.3591 350.354C44.5137 350.354 42.207 352.66 42.207 355.506C42.207 358.351 44.5137 360.658 47.3591 360.658Z" fill="#F0ECEA"/>
<path d="M6.18249 386.419C6.18249 388.129 4.80114 389.511 3.09125 389.511C1.38135 389.511 0 388.129 0 386.419C0 384.709 1.38135 383.328 3.09125 383.328C4.80114 383.328 6.18249 384.709 6.18249 386.419Z" fill="#F0ECEA"/>
<path d="M199.208 266.469C201.105 266.469 202.643 264.931 202.643 263.034C202.643 261.137 201.105 259.6 199.208 259.6C197.311 259.6 195.773 261.137 195.773 263.034C195.773 264.931 197.311 266.469 199.208 266.469Z" fill="#F0ECEA"/>
<path d="M1026.32 274.265C1033.38 274.265 1039.11 268.539 1039.11 261.476C1039.11 254.413 1033.38 248.688 1026.32 248.688C1019.26 248.688 1013.53 254.413 1013.53 261.476C1013.53 268.539 1019.26 274.265 1026.32 274.265Z" stroke="#F0ECEA" stroke-width="2.87" stroke-miterlimit="10"/>
<path d="M776.394 174.904C779.926 174.904 782.789 172.041 782.789 168.51C782.789 164.978 779.926 162.115 776.394 162.115C772.863 162.115 770 164.978 770 168.51C770 172.041 772.863 174.904 776.394 174.904Z" fill="#F0ECEA"/>
<path d="M1114.14 250.393C1116.49 250.393 1118.4 248.484 1118.4 246.13C1118.4 243.776 1116.49 241.867 1114.14 241.867C1111.78 241.867 1109.88 243.776 1109.88 246.13C1109.88 248.484 1111.78 250.393 1114.14 250.393Z" fill="#F0ECEA"/>
<path d="M968.49 154.016C968.49 156.138 966.775 157.853 964.653 157.853C962.531 157.853 960.816 156.138 960.816 154.016C960.816 151.894 962.531 150.18 964.653 150.18C966.775 150.18 968.49 151.894 968.49 154.016Z" fill="#F0ECEA"/>
<path d="M815.807 217.106C815.807 219.228 813.902 220.943 811.544 220.943C809.186 220.943 807.281 219.228 807.281 217.106C807.281 214.984 809.186 213.27 811.544 213.27C813.902 213.27 815.807 214.984 815.807 217.106Z" fill="#F0ECEA"/>
<path d="M1093.7 201.049C1093.76 200.577 1094.44 200.577 1094.5 201.049L1094.97 205.005C1095.57 210.114 1099.6 214.142 1104.71 214.748L1108.67 215.217C1109.14 215.273 1109.14 215.957 1108.67 216.013L1104.71 216.483C1099.6 217.089 1095.57 221.117 1094.97 226.225L1094.5 230.182C1094.44 230.653 1093.76 230.653 1093.7 230.182L1093.23 226.225C1092.63 221.117 1088.6 217.089 1083.49 216.483L1079.53 216.013C1079.06 215.957 1079.06 215.273 1079.53 215.217L1083.49 214.748C1088.6 214.142 1092.63 210.114 1093.23 205.005L1093.7 201.049Z" fill="#FFFDF2"/>
<path d="M1317.67 265.349C1317.67 267.707 1315.96 269.612 1313.84 269.612C1311.71 269.612 1310 267.707 1310 265.349C1310 262.991 1311.71 261.086 1313.84 261.086C1315.96 261.086 1317.67 262.991 1317.67 265.349Z" fill="#F0ECEA"/>
<path d="M1367.47 154.059C1369.42 154.059 1371 152.479 1371 150.53C1371 148.58 1369.42 147 1367.47 147C1365.52 147 1363.94 148.58 1363.94 150.53C1363.94 152.479 1365.52 154.059 1367.47 154.059Z" fill="#F0ECEA"/>
<defs>
<linearGradient id="paint0_linear_461_461" x1="1767.33" y1="383.106" x2="1001.12" y2="614.172" gradientUnits="userSpaceOnUse">
<stop stop-color="#3E1681"/>
<stop offset="1" stop-color="#9669E2" stop-opacity="0"/>
</linearGradient>
<linearGradient id="paint1_linear_461_461" x1="1767.33" y1="383.106" x2="1001.12" y2="614.172" gradientUnits="userSpaceOnUse">
<stop stop-color="#3E1681"/>
<stop offset="1" stop-color="#9669E2" stop-opacity="0"/>
</linearGradient>
</defs>
</svg>
