<svg width="18" height="19" viewBox="0 0 18 19" fill="none" xmlns="http://www.w3.org/2000/svg">
<path d="M0.979568 5.23552C2.48976 2.13221 5.59181 0 9.18367 0C11.6632 0 13.7347 0.939449 15.3265 2.47L12.7347 5.08779C12.0714 4.44386 10.9081 3.67331 9.18367 3.67331C6.75512 3.67331 4.69391 5.33055 3.94894 7.6211C3.76527 8.21221 3.65307 8.84552 3.65307 9.5C3.65307 10.1544 3.76527 10.7878 3.95914 11.3789C4.69391 13.6694 6.75512 15.3266 9.18367 15.3266C10.551 15.3266 11.5918 14.9361 12.3673 14.3766C13.5918 13.49 14.1429 12.1706 14.2449 11.2944H9.18367V7.7689H17.8061C17.9387 8.36 18 8.93 18 9.7111C18 12.6033 17 15.0417 15.2653 16.6989C13.7448 18.1555 11.6632 19 9.18367 19C5.59181 19 2.48976 16.8677 0.979568 13.7644C0.357147 12.4766 0 11.0306 0 9.5C0 7.96945 0.357147 6.52331 0.979568 5.23552Z" fill="white"/>
</svg>
