<svg width="151" height="42" viewBox="0 0 151 42" fill="none" xmlns="http://www.w3.org/2000/svg">
<path d="M0.8 33V5H15.12C18.8 5 21.5467 5.68 23.36 7.04C25.1733 8.37333 26.08 10.1333 26.08 12.32C26.08 13.76 25.6933 15.0267 24.92 16.12C24.1733 17.1867 23.1067 18.04 21.72 18.68C20.36 19.2933 18.7333 19.6 16.84 19.6L17.64 17.68C19.6133 17.68 21.3333 17.9867 22.8 18.6C24.2667 19.1867 25.4 20.0533 26.2 21.2C27.0267 22.32 27.44 23.6933 27.44 25.32C27.44 27.7467 26.4533 29.64 24.48 31C22.5333 32.3333 19.68 33 15.92 33H0.8ZM8.64 27.28H15.28C16.64 27.28 17.6667 27.0533 18.36 26.6C19.08 26.12 19.44 25.4 19.44 24.44C19.44 23.48 19.08 22.7733 18.36 22.32C17.6667 21.84 16.64 21.6 15.28 21.6H8.08V16.12H14.08C15.4133 16.12 16.4133 15.8933 17.08 15.44C17.7467 14.9867 18.08 14.3067 18.08 13.4C18.08 12.4933 17.7467 11.8267 17.08 11.4C16.4133 10.9467 15.4133 10.72 14.08 10.72H8.64V27.28ZM31.1822 33V11.32H38.4222V17.64L37.3422 15.84C37.9822 14.2133 39.0222 13 40.4622 12.2C41.9022 11.3733 43.6489 10.96 45.7022 10.96V17.8C45.3555 17.7467 45.0489 17.72 44.7822 17.72C44.5422 17.6933 44.2755 17.68 43.9822 17.68C42.4355 17.68 41.1822 18.1067 40.2222 18.96C39.2622 19.7867 38.7822 21.1467 38.7822 23.04V33H31.1822ZM48.8384 33V11.32H56.4384V33H48.8384ZM52.6384 8.92C51.2518 8.92 50.1318 8.53333 49.2784 7.76C48.4251 6.98667 47.9984 6.02667 47.9984 4.88C47.9984 3.73333 48.4251 2.77333 49.2784 2C50.1318 1.22667 51.2518 0.839999 52.6384 0.839999C54.0251 0.839999 55.1451 1.21333 55.9984 1.96C56.8518 2.68 57.2784 3.61333 57.2784 4.76C57.2784 5.96 56.8518 6.96 55.9984 7.76C55.1718 8.53333 54.0518 8.92 52.6384 8.92ZM70.8175 33.36C68.8442 33.36 67.0442 32.9067 65.4175 32C63.8175 31.0667 62.5375 29.7733 61.5775 28.12C60.6175 26.44 60.1375 24.44 60.1375 22.12C60.1375 19.8267 60.6175 17.8533 61.5775 16.2C62.5375 14.52 63.8175 13.2267 65.4175 12.32C67.0442 11.4133 68.8442 10.96 70.8175 10.96C72.6842 10.96 74.2575 11.36 75.5375 12.16C76.8442 12.96 77.8308 14.1867 78.4975 15.84C79.1642 17.4933 79.4975 19.5867 79.4975 22.12C79.4975 24.7067 79.1775 26.8267 78.5375 28.48C77.8975 30.1333 76.9375 31.36 75.6575 32.16C74.3775 32.96 72.7642 33.36 70.8175 33.36ZM72.4175 27.32C73.2708 27.32 74.0308 27.12 74.6975 26.72C75.3908 26.32 75.9375 25.7333 76.3375 24.96C76.7375 24.16 76.9375 23.2133 76.9375 22.12C76.9375 21.0267 76.7375 20.1067 76.3375 19.36C75.9375 18.5867 75.3908 18 74.6975 17.6C74.0308 17.2 73.2708 17 72.4175 17C71.5375 17 70.7508 17.2 70.0575 17.6C69.3908 18 68.8575 18.5867 68.4575 19.36C68.0575 20.1067 67.8575 21.0267 67.8575 22.12C67.8575 23.2133 68.0575 24.16 68.4575 24.96C68.8575 25.7333 69.3908 26.32 70.0575 26.72C70.7508 27.12 71.5375 27.32 72.4175 27.32ZM77.1775 33V29.28L77.2175 22.12L76.8175 14.96V3.32H84.4175V33H77.1775ZM99.9072 41.12C97.8272 41.12 95.8405 40.88 93.9472 40.4C92.0805 39.92 90.4805 39.2133 89.1472 38.28L91.9072 32.96C92.8139 33.68 93.9339 34.24 95.2672 34.64C96.6272 35.0667 97.9472 35.28 99.2272 35.28C101.281 35.28 102.761 34.8267 103.667 33.92C104.574 33.04 105.027 31.7467 105.027 30.04V27.48L105.427 21.4L105.387 15.28V11.32H112.627V29.04C112.627 33.1467 111.521 36.1867 109.307 38.16C107.094 40.1333 103.961 41.12 99.9072 41.12ZM98.5872 31.88C96.6672 31.88 94.8939 31.4533 93.2672 30.6C91.6672 29.72 90.3739 28.5067 89.3872 26.96C88.4272 25.3867 87.9472 23.5333 87.9472 21.4C87.9472 19.2667 88.4272 17.4267 89.3872 15.88C90.3739 14.3067 91.6672 13.0933 93.2672 12.24C94.8939 11.3867 96.6672 10.96 98.5872 10.96C100.427 10.96 102.001 11.3333 103.307 12.08C104.614 12.8 105.601 13.9333 106.267 15.48C106.961 17.0267 107.307 19 107.307 21.4C107.307 23.8 106.961 25.7733 106.267 27.32C105.601 28.8667 104.614 30.0133 103.307 30.76C102.001 31.5067 100.427 31.88 98.5872 31.88ZM100.387 25.84C101.294 25.84 102.094 25.6533 102.787 25.28C103.507 24.9067 104.067 24.3867 104.467 23.72C104.894 23.0533 105.107 22.28 105.107 21.4C105.107 20.52 104.894 19.7467 104.467 19.08C104.067 18.4133 103.507 17.9067 102.787 17.56C102.094 17.1867 101.294 17 100.387 17C99.4805 17 98.6672 17.1867 97.9472 17.56C97.2272 17.9067 96.6539 18.4133 96.2272 19.08C95.8272 19.7467 95.6272 20.52 95.6272 21.4C95.6272 22.28 95.8272 23.0533 96.2272 23.72C96.6539 24.3867 97.2272 24.9067 97.9472 25.28C98.6672 25.6533 99.4805 25.84 100.387 25.84ZM128.87 33.36C126.31 33.36 124.07 32.88 122.15 31.92C120.257 30.9333 118.777 29.6 117.71 27.92C116.67 26.2133 116.15 24.28 116.15 22.12C116.15 19.96 116.657 18.04 117.67 16.36C118.71 14.6533 120.137 13.3333 121.95 12.4C123.764 11.44 125.804 10.96 128.07 10.96C130.204 10.96 132.15 11.4 133.91 12.28C135.67 13.1333 137.07 14.4 138.11 16.08C139.15 17.76 139.67 19.8 139.67 22.2C139.67 22.4667 139.657 22.7733 139.63 23.12C139.604 23.4667 139.577 23.7867 139.55 24.08H122.39V20.08H135.51L132.63 21.2C132.657 20.2133 132.47 19.36 132.07 18.64C131.697 17.92 131.164 17.36 130.47 16.96C129.804 16.56 129.017 16.36 128.11 16.36C127.204 16.36 126.404 16.56 125.71 16.96C125.044 17.36 124.524 17.9333 124.15 18.68C123.777 19.4 123.59 20.2533 123.59 21.24V22.4C123.59 23.4667 123.804 24.3867 124.23 25.16C124.684 25.9333 125.324 26.5333 126.15 26.96C126.977 27.36 127.964 27.56 129.11 27.56C130.177 27.56 131.084 27.4133 131.83 27.12C132.604 26.8 133.364 26.32 134.11 25.68L138.11 29.84C137.07 30.9867 135.79 31.8667 134.27 32.48C132.75 33.0667 130.95 33.36 128.87 33.36ZM146.374 33.36C145.094 33.36 144.014 32.9333 143.134 32.08C142.254 31.2267 141.814 30.1467 141.814 28.84C141.814 27.48 142.254 26.4 143.134 25.6C144.014 24.7733 145.094 24.36 146.374 24.36C147.654 24.36 148.734 24.7733 149.614 25.6C150.494 26.4 150.934 27.48 150.934 28.84C150.934 30.1467 150.494 31.2267 149.614 32.08C148.734 32.9333 147.654 33.36 146.374 33.36Z" fill="#AD88EB"/>
</svg>
